<svg xmlns="http://www.w3.org/2000/svg" xmlns:xlink="http://www.w3.org/1999/xlink" width="1080" zoomAndPan="magnify" viewBox="0 0 810 809.999993" height="1080" preserveAspectRatio="xMidYMid meet" version="1.0"><path fill="#005146" d="M 202.625 202.398438 C 205.941406 199.085938 209.335938 195.855469 212.808594 192.710938 C 216.28125 189.5625 219.828125 186.503906 223.453125 183.53125 C 227.078125 180.558594 230.773438 177.675781 234.535156 174.886719 C 238.300781 172.097656 242.132812 169.398438 246.03125 166.796875 C 249.929688 164.195312 253.886719 161.6875 257.910156 159.28125 C 261.929688 156.871094 266.007812 154.5625 270.140625 152.355469 C 274.273438 150.144531 278.460938 148.039062 282.695312 146.039062 C 286.933594 144.035156 291.21875 142.136719 295.546875 140.34375 C 299.878906 138.550781 304.25 136.867188 308.664062 135.289062 C 313.078125 133.710938 317.527344 132.242188 322.011719 130.882812 C 326.496094 129.523438 331.011719 128.273438 335.558594 127.136719 C 340.105469 126 344.675781 124.972656 349.273438 124.058594 C 353.871094 123.148438 358.488281 122.347656 363.121094 121.660156 C 367.757812 120.972656 372.410156 120.398438 377.074219 119.941406 C 381.738281 119.484375 386.410156 119.140625 391.089844 118.910156 C 395.773438 118.679688 400.457031 118.566406 405.144531 118.566406 C 409.828125 118.566406 414.511719 118.683594 419.195312 118.914062 C 423.875 119.144531 428.546875 119.488281 433.210938 119.949219 C 437.875 120.410156 442.527344 120.984375 447.164062 121.671875 C 451.796875 122.359375 456.414062 123.164062 461.011719 124.078125 C 465.609375 124.992188 470.179688 126.019531 474.726562 127.160156 C 479.269531 128.296875 483.785156 129.546875 488.269531 130.910156 C 492.757812 132.269531 497.203125 133.738281 501.617188 135.320312 C 506.03125 136.898438 510.402344 138.585938 514.730469 140.378906 C 519.0625 142.171875 523.34375 144.070312 527.582031 146.074219 C 531.816406 148.078125 536.003906 150.1875 540.136719 152.394531 C 544.269531 154.605469 548.34375 156.914062 552.363281 159.324219 C 556.386719 161.734375 560.34375 164.242188 564.238281 166.84375 C 568.136719 169.449219 571.96875 172.148438 575.730469 174.9375 C 579.496094 177.730469 583.191406 180.613281 586.8125 183.585938 C 590.433594 186.558594 593.984375 189.621094 597.457031 192.769531 C 600.929688 195.914062 604.320312 199.144531 607.636719 202.460938 L 810.109375 404.933594 L 607.636719 607.410156 C 604.320312 610.722656 600.929688 613.953125 597.457031 617.101562 C 593.984375 620.25 590.433594 623.308594 586.8125 626.28125 C 583.191406 629.253906 579.496094 632.136719 575.730469 634.929688 C 571.96875 637.722656 568.136719 640.421875 564.238281 643.023438 C 560.34375 645.628906 556.386719 648.136719 552.363281 650.542969 C 548.34375 652.953125 544.269531 655.261719 540.136719 657.472656 C 536.003906 659.683594 531.816406 661.789062 527.582031 663.792969 C 523.34375 665.796875 519.0625 667.695312 514.730469 669.492188 C 510.402344 671.285156 506.03125 672.972656 501.617188 674.550781 C 497.203125 676.128906 492.757812 677.601562 488.269531 678.960938 C 483.785156 680.320312 479.269531 681.570312 474.726562 682.710938 C 470.179688 683.851562 465.609375 684.878906 461.011719 685.792969 C 456.414062 686.707031 451.796875 687.507812 447.164062 688.195312 C 442.527344 688.886719 437.875 689.460938 433.210938 689.917969 C 428.546875 690.378906 423.875 690.726562 419.195312 690.957031 C 414.511719 691.1875 409.828125 691.300781 405.144531 691.300781 C 400.457031 691.304688 395.773438 691.1875 391.089844 690.960938 C 386.410156 690.730469 381.738281 690.386719 377.074219 689.929688 C 372.410156 689.46875 367.757812 688.898438 363.121094 688.210938 C 358.488281 687.523438 353.871094 686.722656 349.273438 685.808594 C 344.675781 684.894531 340.105469 683.871094 335.558594 682.730469 C 331.011719 681.59375 326.496094 680.347656 322.011719 678.984375 C 317.527344 677.625 313.078125 676.15625 308.664062 674.578125 C 304.25 673.003906 299.878906 671.316406 295.546875 669.523438 C 291.21875 667.730469 286.933594 665.835938 282.695312 663.832031 C 278.460938 661.828125 274.273438 659.722656 270.140625 657.515625 C 266.007812 655.304688 261.929688 652.996094 257.910156 650.589844 C 253.886719 648.179688 249.929688 645.675781 246.03125 643.074219 C 242.132812 640.46875 238.300781 637.773438 234.535156 634.984375 C 230.773438 632.191406 227.078125 629.308594 223.453125 626.339844 C 219.828125 623.367188 216.28125 620.304688 212.808594 617.160156 C 209.335938 614.015625 205.941406 610.785156 202.625 607.472656 C 199.308594 604.15625 196.078125 600.761719 192.929688 597.289062 C 189.78125 593.816406 186.722656 590.265625 183.746094 586.644531 C 180.773438 583.019531 177.890625 579.324219 175.097656 575.5625 C 172.304688 571.796875 169.609375 567.964844 167.003906 564.066406 C 164.398438 560.167969 161.890625 556.210938 159.480469 552.1875 C 157.070312 548.167969 154.761719 544.089844 152.550781 539.957031 C 150.34375 535.824219 148.234375 531.636719 146.230469 527.398438 C 144.226562 523.160156 142.328125 518.878906 140.535156 514.546875 C 138.742188 510.214844 137.054688 505.84375 135.476562 501.429688 C 133.894531 497.015625 132.425781 492.566406 131.066406 488.082031 C 129.703125 483.59375 128.453125 479.078125 127.316406 474.53125 C 126.175781 469.984375 125.148438 465.410156 124.234375 460.8125 C 123.320312 456.214844 122.519531 451.597656 121.832031 446.960938 C 121.144531 442.324219 120.570312 437.675781 120.109375 433.007812 C 119.652344 428.34375 119.304688 423.671875 119.078125 418.988281 C 118.847656 414.308594 118.730469 409.621094 118.730469 404.933594 C 118.730469 400.246094 118.847656 395.5625 119.078125 390.878906 C 119.304688 386.199219 119.652344 381.523438 120.109375 376.859375 C 120.570312 372.195312 121.144531 367.542969 121.832031 362.90625 C 122.519531 358.269531 123.320312 353.652344 124.234375 349.054688 C 125.148438 344.457031 126.175781 339.886719 127.316406 335.339844 C 128.453125 330.789062 129.703125 326.273438 131.066406 321.789062 C 132.425781 317.300781 133.894531 312.851562 135.476562 308.4375 C 137.054688 304.027344 138.742188 299.652344 140.535156 295.324219 C 142.328125 290.992188 144.226562 286.707031 146.230469 282.46875 C 148.234375 278.234375 150.34375 274.046875 152.550781 269.914062 C 154.761719 265.777344 157.070312 261.699219 159.480469 257.679688 C 161.890625 253.660156 164.398438 249.699219 167.003906 245.804688 C 169.609375 241.90625 172.304688 238.074219 175.097656 234.308594 C 177.890625 230.542969 180.773438 226.847656 183.746094 223.226562 C 186.722656 219.601562 189.78125 216.054688 192.929688 212.582031 C 196.078125 209.105469 199.308594 205.714844 202.625 202.398438 Z M 202.625 202.398438 " fill-opacity="1" fill-rule="nonzero"/><path fill="#ffffff" d="M 598.710938 419.441406 C 598.710938 422.75 598.628906 426.0625 598.46875 429.367188 C 598.304688 432.675781 598.0625 435.976562 597.738281 439.273438 C 597.410156 442.566406 597.007812 445.851562 596.519531 449.128906 C 596.035156 452.402344 595.46875 455.664062 594.824219 458.914062 C 594.175781 462.160156 593.453125 465.390625 592.648438 468.601562 C 591.84375 471.816406 590.960938 475.007812 590 478.175781 C 589.035156 481.34375 588 484.488281 586.882812 487.605469 C 585.765625 490.722656 584.574219 493.8125 583.308594 496.871094 C 582.042969 499.929688 580.699219 502.957031 579.285156 505.949219 C 577.867188 508.941406 576.378906 511.898438 574.820312 514.820312 C 573.257812 517.742188 571.625 520.621094 569.925781 523.460938 C 568.222656 526.300781 566.449219 529.097656 564.609375 531.851562 C 562.769531 534.605469 560.867188 537.3125 558.894531 539.972656 C 556.921875 542.628906 554.882812 545.242188 552.78125 547.800781 C 550.683594 550.359375 548.519531 552.867188 546.296875 555.320312 C 544.074219 557.773438 541.789062 560.171875 539.449219 562.511719 C 537.105469 564.855469 534.710938 567.136719 532.253906 569.359375 C 529.800781 571.585938 527.296875 573.746094 524.734375 575.847656 C 522.175781 577.949219 519.566406 579.984375 516.90625 581.957031 C 514.246094 583.929688 511.539062 585.835938 508.785156 587.675781 C 506.035156 589.515625 503.238281 591.285156 500.398438 592.988281 C 497.554688 594.691406 494.675781 596.324219 491.753906 597.882812 C 488.835938 599.445312 485.878906 600.933594 482.886719 602.347656 C 479.890625 603.765625 476.863281 605.105469 473.804688 606.375 C 470.746094 607.640625 467.65625 608.832031 464.539062 609.949219 C 461.421875 611.0625 458.277344 612.101562 455.109375 613.0625 C 451.941406 614.023438 448.75 614.90625 445.539062 615.710938 C 442.328125 616.515625 439.097656 617.242188 435.847656 617.886719 C 432.601562 618.535156 429.339844 619.097656 426.0625 619.585938 C 422.789062 620.070312 419.503906 620.476562 416.207031 620.800781 C 412.914062 621.125 409.609375 621.371094 406.304688 621.53125 C 402.996094 621.695312 399.6875 621.773438 396.375 621.777344 C 393.0625 621.773438 389.753906 621.695312 386.449219 621.53125 C 383.140625 621.371094 379.839844 621.125 376.542969 620.800781 C 373.246094 620.476562 369.960938 620.070312 366.6875 619.585938 C 363.410156 619.097656 360.148438 618.535156 356.902344 617.886719 C 353.652344 617.242188 350.425781 616.515625 347.210938 615.710938 C 344 614.90625 340.808594 614.023438 337.640625 613.0625 C 334.472656 612.101562 331.328125 611.0625 328.210938 609.949219 C 325.09375 608.832031 322.003906 607.640625 318.945312 606.375 C 315.886719 605.105469 312.859375 603.765625 309.867188 602.347656 C 306.871094 600.933594 303.914062 599.445312 300.996094 597.882812 C 298.074219 596.324219 295.195312 594.691406 292.355469 592.988281 C 289.515625 591.285156 286.71875 589.515625 283.964844 587.675781 C 281.210938 585.835938 278.503906 583.929688 275.84375 581.957031 C 273.183594 579.984375 270.574219 577.949219 268.015625 575.847656 C 265.457031 573.746094 262.949219 571.585938 260.496094 569.359375 C 258.042969 567.136719 255.644531 564.855469 253.304688 562.511719 C 250.960938 560.171875 248.679688 557.773438 246.453125 555.320312 C 244.230469 552.867188 242.070312 550.359375 239.96875 547.800781 C 237.867188 545.242188 235.832031 542.628906 233.859375 539.972656 C 231.886719 537.3125 229.980469 534.605469 228.140625 531.851562 C 226.300781 529.097656 224.527344 526.300781 222.828125 523.460938 C 221.125 520.621094 219.492188 517.742188 217.929688 514.820312 C 216.371094 511.898438 214.882812 508.941406 213.464844 505.949219 C 212.050781 502.957031 210.710938 499.929688 209.441406 496.871094 C 208.175781 493.8125 206.984375 490.722656 205.867188 487.605469 C 204.753906 484.488281 203.714844 481.34375 202.753906 478.175781 C 201.792969 475.007812 200.910156 471.816406 200.105469 468.601562 C 199.300781 465.390625 198.574219 462.160156 197.929688 458.914062 C 197.28125 455.664062 196.714844 452.402344 196.230469 449.128906 C 195.746094 445.851562 195.339844 442.566406 195.015625 439.273438 C 194.691406 435.976562 194.445312 432.675781 194.285156 429.367188 C 194.121094 426.0625 194.039062 422.75 194.039062 419.441406 C 194.039062 416.128906 194.121094 412.820312 194.285156 409.511719 C 194.445312 406.203125 194.691406 402.902344 195.015625 399.609375 C 195.339844 396.3125 195.746094 393.027344 196.230469 389.75 C 196.714844 386.476562 197.28125 383.214844 197.929688 379.964844 C 198.574219 376.71875 199.300781 373.488281 200.105469 370.277344 C 200.910156 367.0625 201.792969 363.875 202.753906 360.707031 C 203.714844 357.535156 204.753906 354.394531 205.867188 351.273438 C 206.984375 348.15625 208.175781 345.070312 209.441406 342.007812 C 210.710938 338.949219 212.050781 335.925781 213.464844 332.929688 C 214.882812 329.9375 216.371094 326.980469 217.929688 324.058594 C 219.492188 321.140625 221.125 318.257812 222.828125 315.417969 C 224.527344 312.578125 226.300781 309.78125 228.140625 307.027344 C 229.980469 304.273438 231.886719 301.570312 233.859375 298.910156 C 235.832031 296.25 237.867188 293.640625 239.96875 291.078125 C 242.070312 288.519531 244.230469 286.011719 246.453125 283.558594 C 248.679688 281.105469 250.960938 278.707031 253.304688 276.367188 C 255.644531 274.027344 258.042969 271.742188 260.496094 269.519531 C 262.949219 267.296875 265.457031 265.132812 268.015625 263.03125 C 270.574219 260.933594 273.183594 258.894531 275.84375 256.921875 C 278.503906 254.949219 281.210938 253.042969 283.964844 251.203125 C 286.71875 249.363281 289.515625 247.59375 292.355469 245.890625 C 295.195312 244.1875 298.074219 242.558594 300.996094 240.996094 C 303.914062 239.433594 306.871094 237.945312 309.867188 236.53125 C 312.859375 235.113281 315.886719 233.773438 318.945312 232.507812 C 322.003906 231.238281 325.09375 230.046875 328.210938 228.933594 C 331.328125 227.816406 334.472656 226.777344 337.640625 225.816406 C 340.808594 224.855469 344 223.972656 347.210938 223.167969 C 350.425781 222.363281 353.652344 221.636719 356.902344 220.992188 C 360.148438 220.347656 363.410156 219.78125 366.6875 219.292969 C 369.960938 218.808594 373.246094 218.402344 376.542969 218.078125 C 379.839844 217.753906 383.140625 217.511719 386.449219 217.347656 C 389.753906 217.1875 393.0625 217.105469 396.375 217.105469 C 399.6875 217.105469 402.996094 217.1875 406.304688 217.347656 C 409.609375 217.511719 412.914062 217.753906 416.207031 218.078125 C 419.503906 218.402344 422.789062 218.808594 426.0625 219.292969 C 429.339844 219.78125 432.601562 220.347656 435.847656 220.992188 C 439.097656 221.636719 442.328125 222.363281 445.539062 223.167969 C 448.75 223.972656 451.941406 224.855469 455.109375 225.816406 C 458.277344 226.777344 461.421875 227.816406 464.539062 228.933594 C 467.65625 230.046875 470.746094 231.238281 473.804688 232.507812 C 476.863281 233.773438 479.890625 235.113281 482.886719 236.53125 C 485.878906 237.945312 488.835938 239.433594 491.753906 240.996094 C 494.675781 242.558594 497.554688 244.1875 500.398438 245.890625 C 503.238281 247.59375 506.035156 249.363281 508.785156 251.203125 C 511.539062 253.042969 514.246094 254.949219 516.90625 256.921875 C 519.566406 258.894531 522.175781 260.933594 524.734375 263.03125 C 527.296875 265.132812 529.800781 267.296875 532.253906 269.519531 C 534.710938 271.742188 537.105469 274.027344 539.449219 276.367188 C 541.789062 278.707031 544.074219 281.105469 546.296875 283.558594 C 548.519531 286.011719 550.683594 288.519531 552.78125 291.078125 C 554.882812 293.640625 556.921875 296.25 558.894531 298.910156 C 560.867188 301.570312 562.769531 304.273438 564.609375 307.027344 C 566.449219 309.78125 568.222656 312.578125 569.925781 315.417969 C 571.625 318.257812 573.257812 321.140625 574.820312 324.058594 C 576.378906 326.980469 577.867188 329.9375 579.285156 332.929688 C 580.699219 335.925781 582.042969 338.949219 583.308594 342.007812 C 584.574219 345.070312 585.765625 348.15625 586.882812 351.273438 C 588 354.394531 589.035156 357.535156 590 360.707031 C 590.960938 363.875 591.84375 367.0625 592.648438 370.277344 C 593.453125 373.488281 594.175781 376.71875 594.824219 379.964844 C 595.46875 383.214844 596.035156 386.476562 596.519531 389.75 C 597.007812 393.027344 597.410156 396.3125 597.738281 399.609375 C 598.0625 402.902344 598.304688 406.203125 598.46875 409.511719 C 598.628906 412.820312 598.710938 416.128906 598.710938 419.441406 Z M 598.710938 419.441406 " fill-opacity="1" fill-rule="nonzero"/><path fill="#c1ac4e" d="M 607.488281 404.933594 C 607.488281 408.246094 607.40625 411.554688 607.246094 414.863281 C 607.082031 418.167969 606.839844 421.472656 606.515625 424.765625 C 606.191406 428.0625 605.785156 431.347656 605.300781 434.621094 C 604.8125 437.898438 604.246094 441.160156 603.601562 444.40625 C 602.957031 447.65625 602.230469 450.886719 601.425781 454.097656 C 600.621094 457.308594 599.738281 460.5 598.777344 463.667969 C 597.816406 466.835938 596.777344 469.980469 595.660156 473.097656 C 594.546875 476.214844 593.355469 479.304688 592.085938 482.363281 C 590.820312 485.421875 589.476562 488.449219 588.0625 491.445312 C 586.648438 494.4375 585.160156 497.394531 583.597656 500.3125 C 582.035156 503.234375 580.40625 506.113281 578.703125 508.957031 C 577 511.796875 575.230469 514.59375 573.390625 517.34375 C 571.550781 520.097656 569.644531 522.804688 567.671875 525.464844 C 565.699219 528.125 563.660156 530.734375 561.5625 533.292969 C 559.460938 535.855469 557.296875 538.359375 555.074219 540.8125 C 552.851562 543.269531 550.566406 545.664062 548.226562 548.007812 C 545.886719 550.347656 543.488281 552.632812 541.035156 554.855469 C 538.582031 557.078125 536.074219 559.242188 533.515625 561.339844 C 530.953125 563.441406 528.34375 565.480469 525.683594 567.453125 C 523.023438 569.425781 520.320312 571.332031 517.566406 573.167969 C 514.8125 575.007812 512.015625 576.78125 509.175781 578.484375 C 506.335938 580.183594 503.453125 581.816406 500.535156 583.378906 C 497.613281 584.9375 494.65625 586.425781 491.664062 587.84375 C 488.667969 589.257812 485.644531 590.601562 482.585938 591.867188 C 479.523438 593.136719 476.4375 594.328125 473.316406 595.441406 C 470.199219 596.558594 467.058594 597.597656 463.886719 598.558594 C 460.71875 599.519531 457.527344 600.402344 454.316406 601.207031 C 451.105469 602.011719 447.875 602.734375 444.628906 603.382812 C 441.378906 604.027344 438.117188 604.59375 434.84375 605.078125 C 431.566406 605.566406 428.28125 605.96875 424.984375 606.296875 C 421.691406 606.621094 418.390625 606.863281 415.082031 607.027344 C 411.773438 607.1875 408.464844 607.269531 405.152344 607.269531 C 401.84375 607.269531 398.53125 607.1875 395.226562 607.027344 C 391.917969 606.863281 388.617188 606.621094 385.320312 606.296875 C 382.027344 605.96875 378.742188 605.566406 375.464844 605.078125 C 372.1875 604.59375 368.925781 604.027344 365.679688 603.382812 C 362.433594 602.734375 359.203125 602.011719 355.988281 601.207031 C 352.777344 600.402344 349.585938 599.519531 346.417969 598.558594 C 343.25 597.597656 340.105469 596.558594 336.988281 595.441406 C 333.871094 594.328125 330.78125 593.136719 327.722656 591.867188 C 324.664062 590.601562 321.636719 589.257812 318.644531 587.84375 C 315.652344 586.425781 312.695312 584.9375 309.773438 583.378906 C 306.851562 581.816406 303.972656 580.183594 301.132812 578.484375 C 298.292969 576.78125 295.496094 575.007812 292.742188 573.167969 C 289.988281 571.332031 287.28125 569.425781 284.621094 567.453125 C 281.960938 565.480469 279.351562 563.441406 276.792969 561.339844 C 274.234375 559.242188 271.726562 557.078125 269.273438 554.855469 C 266.820312 552.632812 264.421875 550.347656 262.082031 548.007812 C 259.738281 545.664062 257.457031 543.269531 255.234375 540.8125 C 253.007812 538.359375 250.847656 535.855469 248.746094 533.292969 C 246.644531 530.734375 244.609375 528.125 242.636719 525.464844 C 240.664062 522.804688 238.757812 520.097656 236.917969 517.34375 C 235.078125 514.59375 233.308594 511.796875 231.605469 508.957031 C 229.902344 506.113281 228.269531 503.234375 226.710938 500.3125 C 225.148438 497.394531 223.660156 494.4375 222.246094 491.445312 C 220.828125 488.449219 219.488281 485.425781 218.21875 482.363281 C 216.953125 479.304688 215.761719 476.214844 214.644531 473.097656 C 213.53125 469.980469 212.492188 466.835938 211.53125 463.667969 C 210.570312 460.5 209.6875 457.308594 208.882812 454.097656 C 208.078125 450.886719 207.351562 447.65625 206.707031 444.40625 C 206.058594 441.160156 205.492188 437.898438 205.007812 434.621094 C 204.523438 431.347656 204.117188 428.0625 203.792969 424.765625 C 203.46875 421.472656 203.222656 418.167969 203.0625 414.863281 C 202.898438 411.554688 202.816406 408.246094 202.816406 404.933594 C 202.816406 401.621094 202.898438 398.3125 203.0625 395.007812 C 203.222656 391.699219 203.46875 388.398438 203.792969 385.101562 C 204.117188 381.804688 204.523438 378.519531 205.007812 375.246094 C 205.492188 371.96875 206.058594 368.707031 206.707031 365.460938 C 207.351562 362.210938 208.078125 358.984375 208.882812 355.769531 C 209.6875 352.558594 210.570312 349.367188 211.53125 346.199219 C 212.492188 343.03125 213.53125 339.886719 214.644531 336.769531 C 215.761719 333.652344 216.953125 330.5625 218.21875 327.503906 C 219.488281 324.445312 220.828125 321.417969 222.246094 318.425781 C 223.660156 315.429688 225.148438 312.472656 226.710938 309.554688 C 228.269531 306.632812 229.902344 303.753906 231.605469 300.914062 C 233.308594 298.074219 235.078125 295.277344 236.917969 292.523438 C 238.757812 289.769531 240.664062 287.0625 242.636719 284.402344 C 244.609375 281.742188 246.644531 279.132812 248.746094 276.574219 C 250.847656 274.015625 253.007812 271.507812 255.234375 269.054688 C 257.457031 266.601562 259.738281 264.203125 262.082031 261.863281 C 264.421875 259.519531 266.820312 257.238281 269.273438 255.011719 C 271.726562 252.789062 274.234375 250.628906 276.792969 248.527344 C 279.351562 246.425781 281.960938 244.390625 284.621094 242.417969 C 287.28125 240.445312 289.988281 238.539062 292.742188 236.699219 C 295.496094 234.859375 298.292969 233.085938 301.132812 231.386719 C 303.972656 229.683594 306.851562 228.050781 309.773438 226.492188 C 312.695312 224.929688 315.652344 223.441406 318.644531 222.023438 C 321.636719 220.609375 324.664062 219.269531 327.722656 218 C 330.78125 216.734375 333.871094 215.542969 336.988281 214.425781 C 340.105469 213.3125 343.25 212.273438 346.417969 211.3125 C 349.585938 210.351562 352.777344 209.46875 355.988281 208.664062 C 359.203125 207.859375 362.433594 207.132812 365.679688 206.488281 C 368.925781 205.839844 372.1875 205.273438 375.464844 204.789062 C 378.742188 204.304688 382.027344 203.898438 385.320312 203.574219 C 388.617188 203.25 391.917969 203.003906 395.226562 202.84375 C 398.53125 202.679688 401.84375 202.597656 405.152344 202.597656 C 408.464844 202.597656 411.773438 202.679688 415.082031 202.84375 C 418.390625 203.003906 421.691406 203.25 424.984375 203.574219 C 428.28125 203.898438 431.566406 204.304688 434.84375 204.789062 C 438.117188 205.273438 441.378906 205.839844 444.628906 206.488281 C 447.875 207.132812 451.105469 207.859375 454.316406 208.664062 C 457.527344 209.46875 460.71875 210.351562 463.886719 211.3125 C 467.058594 212.273438 470.199219 213.3125 473.316406 214.425781 C 476.4375 215.542969 479.523438 216.734375 482.582031 218 C 485.644531 219.269531 488.667969 220.609375 491.664062 222.023438 C 494.65625 223.441406 497.613281 224.929688 500.535156 226.492188 C 503.453125 228.050781 506.335938 229.683594 509.175781 231.386719 C 512.015625 233.085938 514.8125 234.859375 517.566406 236.699219 C 520.320312 238.539062 523.023438 240.445312 525.683594 242.417969 C 528.34375 244.390625 530.953125 246.425781 533.515625 248.527344 C 536.074219 250.628906 538.582031 252.789062 541.035156 255.011719 C 543.488281 257.238281 545.886719 259.519531 548.226562 261.863281 C 550.566406 264.203125 552.851562 266.601562 555.074219 269.054688 C 557.296875 271.507812 559.460938 274.015625 561.5625 276.574219 C 563.660156 279.132812 565.699219 281.742188 567.671875 284.402344 C 569.644531 287.0625 571.550781 289.769531 573.390625 292.523438 C 575.230469 295.277344 577 298.074219 578.703125 300.914062 C 580.40625 303.753906 582.035156 306.632812 583.597656 309.554688 C 585.160156 312.472656 586.648438 315.429688 588.0625 318.425781 C 589.476562 321.417969 590.820312 324.445312 592.085938 327.503906 C 593.355469 330.5625 594.546875 333.652344 595.660156 336.769531 C 596.777344 339.886719 597.816406 343.03125 598.777344 346.199219 C 599.738281 349.367188 600.621094 352.558594 601.425781 355.769531 C 602.230469 358.984375 602.957031 362.210938 603.601562 365.460938 C 604.246094 368.707031 604.8125 371.96875 605.300781 375.246094 C 605.785156 378.519531 606.191406 381.804688 606.515625 385.101562 C 606.839844 388.398438 607.082031 391.699219 607.246094 395.007812 C 607.40625 398.3125 607.488281 401.621094 607.488281 404.933594 Z M 607.488281 404.933594 " fill-opacity="1" fill-rule="nonzero"/><path fill="#005146" d="M 389.265625 362.402344 L 365.585938 367.515625 C 365.292969 367.589844 364.996094 367.632812 364.695312 367.640625 C 364.394531 367.652344 364.097656 367.632812 363.800781 367.582031 C 363.503906 367.53125 363.214844 367.453125 362.933594 367.34375 C 362.652344 367.234375 362.386719 367.097656 362.132812 366.929688 C 361.882812 366.765625 361.648438 366.578125 361.4375 366.367188 C 361.222656 366.152344 361.035156 365.921875 360.867188 365.667969 C 360.703125 365.417969 360.5625 365.152344 360.453125 364.871094 C 360.34375 364.589844 360.261719 364.304688 360.210938 364.007812 L 358.585938 350.839844 C 358.410156 349.96875 358.441406 349.105469 358.683594 348.25 C 358.921875 347.394531 359.34375 346.640625 359.945312 345.988281 L 398.703125 313.421875 L 417.53125 313.421875 C 417.855469 313.4375 418.175781 313.480469 418.492188 313.558594 C 418.8125 313.632812 419.117188 313.738281 419.414062 313.875 C 419.710938 314.007812 419.992188 314.171875 420.253906 314.359375 C 420.519531 314.550781 420.765625 314.761719 420.988281 315 C 421.214844 315.234375 421.414062 315.492188 421.589844 315.765625 C 421.761719 316.039062 421.910156 316.328125 422.027344 316.632812 C 422.148438 316.933594 422.238281 317.246094 422.296875 317.566406 C 422.355469 317.886719 422.382812 318.210938 422.378906 318.535156 L 422.378906 491.355469 C 422.382812 491.679688 422.355469 492.003906 422.296875 492.324219 C 422.238281 492.644531 422.148438 492.957031 422.027344 493.257812 C 421.910156 493.5625 421.761719 493.851562 421.589844 494.125 C 421.414062 494.398438 421.214844 494.65625 420.988281 494.890625 C 420.765625 495.128906 420.519531 495.339844 420.253906 495.53125 C 419.992188 495.71875 419.710938 495.882812 419.414062 496.015625 C 419.117188 496.152344 418.808594 496.257812 418.492188 496.332031 C 418.175781 496.410156 417.855469 496.453125 417.53125 496.46875 L 394.378906 496.46875 C 394.042969 496.464844 393.710938 496.433594 393.382812 496.367188 C 393.054688 496.300781 392.734375 496.203125 392.425781 496.074219 C 392.117188 495.945312 391.820312 495.785156 391.542969 495.597656 C 391.265625 495.414062 391.007812 495.199219 390.769531 494.964844 C 390.53125 494.726562 390.320312 494.46875 390.132812 494.191406 C 389.945312 493.910156 389.789062 493.617188 389.660156 493.308594 C 389.53125 493 389.433594 492.679688 389.367188 492.351562 C 389.300781 492.023438 389.265625 491.691406 389.265625 491.355469 Z M 389.265625 362.402344 " fill-opacity="1" fill-rule="nonzero"/></svg>